<svg version="1.1" xmlns="http://www.w3.org/2000/svg" xmlns:xlink="http://www.w3.org/1999/xlink" width="24" height="24" viewBox="0,0,256,256"><g fill="none" fill-rule="nonzero" stroke="none" stroke-width="2" stroke-linecap="round" stroke-linejoin="round" stroke-miterlimit="10" stroke-dasharray="" stroke-dashoffset="0" font-family="none" font-weight="none" font-size="none" text-anchor="none" style="mix-blend-mode: normal"><g transform="translate(-0.00004,-0.00004)"><g><g transform="scale(10.66667,10.66667)"><path d="M0,0h24v24h-24z" stroke="none"></path><path d="M4,4M4,8c0,-2.20914 1.79086,-4 4,-4h8c2.20914,0 4,1.79086 4,4v8c0,2.20914 -1.79086,4 -4,4h-8c-2.20914,0 -4,-1.79086 -4,-4z" stroke="#000080"></path><path d="M12,12M9,12c0,1.65685 1.34315,3 3,3c1.65685,0 3,-1.34315 3,-3c0,-1.65685 -1.34315,-3 -3,-3c-1.65685,0 -3,1.34315 -3,3" stroke="#000080"></path><path d="M16.5,7.5v0.01" stroke="#000080"></path></g></g></g></g></svg>