<svg version="1.1" xmlns="http://www.w3.org/2000/svg" xmlns:xlink="http://www.w3.org/1999/xlink" width="24" height="24" viewBox="0,0,256,256"><g fill="none" fill-rule="nonzero" stroke="none" stroke-width="2" stroke-linecap="round" stroke-linejoin="round" stroke-miterlimit="10" stroke-dasharray="" stroke-dashoffset="0" font-family="none" font-weight="none" font-size="none" text-anchor="none" style="mix-blend-mode: normal"><g><g><g transform="translate(-0.00004,-0.00004)"><g><g transform="scale(10.66667,10.66667)"><path d="M0,0h24v24h-24z" stroke="none"></path><path d="M3,21l1.65,-3.8c-2.61182,-3.70759 -2.05697,-8.77931 1.29471,-11.83448c3.35167,-3.05517 8.45296,-3.13923 11.90348,-0.19615c3.45051,2.94309 4.17217,7.99377 1.68392,11.7854c-2.48824,3.79163 -7.40895,5.13953 -11.48211,3.14523l-5.05,0.9" stroke="#fcfcfc"></path><path d="M9,10c0,0.27614 0.22386,0.5 0.5,0.5c0.27614,0 0.5,-0.22386 0.5,-0.5v-1c0,-0.27614 -0.22386,-0.5 -0.5,-0.5c-0.27614,0 -0.5,0.22386 -0.5,0.5v1c0,2.76142 2.23858,5 5,5h1c0.27614,0 0.5,-0.22386 0.5,-0.5c0,-0.27614 -0.22386,-0.5 -0.5,-0.5h-1c-0.27614,0 -0.5,0.22386 -0.5,0.5c0,0.27614 0.22386,0.5 0.5,0.5" stroke="#fcfcfc"></path></g></g></g></g></g></g></svg>