<svg version="1.1" xmlns="http://www.w3.org/2000/svg" xmlns:xlink="http://www.w3.org/1999/xlink" width="24" height="24" viewBox="0,0,256,256"><g fill="none" fill-rule="nonzero" stroke="none" stroke-width="2" stroke-linecap="round" stroke-linejoin="round" stroke-miterlimit="10" stroke-dasharray="" stroke-dashoffset="0" font-family="none" font-weight="none" font-size="none" text-anchor="none" style="mix-blend-mode: normal"><g transform="translate(-0.00004,-0.00004)"><g><g transform="scale(10.66667,10.66667)"><path d="M0,0h24v24h-24z" stroke="none"></path><path d="M12,10.174c1.766,-2.784 3.315,-4.174 4.648,-4.174c2,0 3.263,2.213 4,5.217c0.704,2.869 0.5,6.783 -2,6.783c-1.114,0 -2.648,-1.565 -4.148,-3.652c-0.95446,-1.3151 -1.79104,-2.71185 -2.5,-4.174z" stroke="#000080"></path><path d="M12,10.174c-1.766,-2.784 -3.315,-4.174 -4.648,-4.174c-2,0 -3.263,2.213 -4,5.217c-0.704,2.869 -0.5,6.783 2,6.783c1.114,0 2.648,-1.565 4.148,-3.652c1,-1.391 1.833,-2.783 2.5,-4.174z" stroke="#000080"></path></g></g></g></g></svg>